    <svg width="300" height="200">
      <rect x="20" y="70" width="10" height="5" fill="gray"/>
      <rect x="20" y="70" width="5" height="17" fill="lightgray"/>
      <rect x="30" y="30" width="300" height="100" fill="greenyellow"/>
      <rect x="30" y="30" width="300" height="5" fill="green"/>
      <rect x="30" y="71" width="300" height="35" fill="green"/>
      <rect x="277" y="76" width="17" height="23" fill="gray" />
      <circle cx="76" cy="130" r="10" fill="black"/>
      <circle cx="235" cy="130" r="10" fill="black" />
      <circle cx="265" cy="130" r="10" fill="black" />
      <circle cx="76" cy="130" r="6" fill="lightgray"/>
      <circle cx="235" cy="130" r="6" fill="lightgray" />
      <circle cx="265" cy="130" r="6" fill="lightgray" />
      <rect x="30" y="35" width="265" height="25" fill="skyblue" />
      <rect x="30" y="76" width="240" height="25" fill="skyblue" />
      <rect x="40" y="76" width="25" height="54" fill="black" />
      <rect x="42" y="78" width="9" height="50" fill="white" />
      <rect x="54" y="78" width="9" height="50" fill="white" />
      <rect x="150" y="76" width="25" height="54" fill="black" />
      <rect x="152" y="78" width="9" height="50" fill="white" />
      <rect x="164" y="78" width="9" height="50" fill="white" />
      <rect x="68" y="88" width="20" height="13" fill="black" />
      <text x="70" y="98" font-size="10" fill="yellow">101</text>
      <rect x="68" y="108" width="7" height="4" fill="yellow" />
      <rect x="30" y="117" width="7" height="7" fill="white" />
      <rect x="30" y="124" width="7" height="3" fill="yellow" />
      <rect x="295" y="113" width="5" height="13" fill="red" />
    </svg>
 
